<svg width="40" height="40" viewBox="0 0 40 40" fill="none" xmlns="http://www.w3.org/2000/svg">
<g clip-path="url(#clip0_3_206)">
<path d="M39.9999 20.1226C39.9999 9.00756 31.0449 -0.00244141 19.9999 -0.00244141C8.94987 5.85939e-05 -0.00512695 9.00756 -0.00512695 20.1251C-0.00512695 30.1676 7.30987 38.4926 16.8699 40.0026V25.9401H11.7949V20.1251H16.8749V15.6876C16.8749 10.6451 19.8624 7.86006 24.4299 7.86006C26.6199 7.86006 28.9074 8.25256 28.9074 8.25256V13.2026H26.3849C23.9024 13.2026 23.1274 14.7551 23.1274 16.3476V20.1226H28.6724L27.7874 25.9376H23.1249V40.0001C32.6849 38.4901 39.9999 30.1651 39.9999 20.1226Z" fill="white"/>
</g>
<defs>
<clipPath id="clip0_3_206">
<rect width="40" height="40" fill="white"/>
</clipPath>
</defs>
</svg>
